<svg xmlns="http://www.w3.org/2000/svg" viewBox="0 0 236.78 68.4"><defs><style>.cls-1{isolation:isolate;}.cls-2{fill:#212121;}.cls-3{fill:#1e0d7d;}.cls-4{fill:#941280;}</style></defs><g id="Capa_2" data-name="Capa 2"><g id="Capa_1-2" data-name="Capa 1"><g class="cls-1"><path class="cls-2" d="M84,9.92h16.86v5.76h-11v5.58h11v5.65h-11V35h11v5.77H84Z"/><path class="cls-2" d="M106.37,9.92H112l13.22,20.33V9.92h5.88V40.81h-5.66l-13.2-20.26V40.81h-5.88Z"/><path class="cls-2" d="M166.55,15.35l-4.11,3.92A12.76,12.76,0,0,0,153,14.84a10.33,10.33,0,0,0-10.49,10.48,11.11,11.11,0,0,0,1.34,5.49,9.61,9.61,0,0,0,3.8,3.76,11,11,0,0,0,5.45,1.37,11.19,11.19,0,0,0,4.68-1,16.81,16.81,0,0,0,4.66-3.48l4,4.16A21.75,21.75,0,0,1,160,40.29a17.51,17.51,0,0,1-7,1.3A16,16,0,0,1,141.22,37a15.81,15.81,0,0,1-4.59-11.71,16.09,16.09,0,0,1,2.09-8.21,15.6,15.6,0,0,1,6-5.77,16.86,16.86,0,0,1,8.39-2.18,17.79,17.79,0,0,1,13.46,6.2Z"/><path class="cls-2" d="M171.27,9.92h5.84V40.81h-5.84Z"/><path class="cls-2" d="M199.93,14.12,195.58,18q-2.29-3.19-4.67-3.2a2.85,2.85,0,0,0-1.89.62,1.82,1.82,0,0,0-.74,1.4,2.39,2.39,0,0,0,.53,1.47,38.47,38.47,0,0,0,4.31,4c2.24,1.87,3.6,3.06,4.08,3.55a12.27,12.27,0,0,1,2.53,3.45,8.6,8.6,0,0,1,.75,3.6,8.27,8.27,0,0,1-2.63,6.28A9.58,9.58,0,0,1,191,41.59,10.18,10.18,0,0,1,185.25,40a12.77,12.77,0,0,1-4.19-5.08l4.94-3q2.24,4.1,5.13,4.09a3.74,3.74,0,0,0,2.54-.88,2.62,2.62,0,0,0,1-2,3.5,3.5,0,0,0-.77-2.1,22.3,22.3,0,0,0-3.43-3.21q-5.06-4.11-6.52-6.35A8.08,8.08,0,0,1,182.51,17,7.27,7.27,0,0,1,185,11.45a8.45,8.45,0,0,1,6-2.3,9.44,9.44,0,0,1,4.4,1.07A15.79,15.79,0,0,1,199.93,14.12Z"/><path class="cls-2" d="M220.67,9.15a15.35,15.35,0,0,1,11.27,4.74,15.82,15.82,0,0,1,4.72,11.57A15.62,15.62,0,0,1,232,36.9a16.12,16.12,0,0,1-22.85-.12,16,16,0,0,1-4.6-11.42,16,16,0,0,1,2.15-8.15,16.14,16.14,0,0,1,14-8.06Zm-.07,5.75a9.69,9.69,0,0,0-7.21,3,10.42,10.42,0,0,0-2.92,7.58,9.89,9.89,0,0,0,3.68,8.11,10.11,10.11,0,0,0,6.56,2.33,9.55,9.55,0,0,0,7.12-3,10.23,10.23,0,0,0,2.95-7.45,10.32,10.32,0,0,0-3-7.47A9.68,9.68,0,0,0,220.6,14.9Z"/></g><g class="cls-1"><g class="cls-1"><path class="cls-2" d="M83.57,46.66H94.4v2.43H86.31v5.82h7.82v2.45H86.31V63.3h8.35v2.43H83.57Z"/><path class="cls-2" d="M102.3,57.75l-2.08-1.26a9.37,9.37,0,0,1-2.78-2.35,4.45,4.45,0,0,1-.83-2.66,4.71,4.71,0,0,1,1.57-3.66,5.84,5.84,0,0,1,4.07-1.41,7.77,7.77,0,0,1,4.39,1.34v3.11a6.32,6.32,0,0,0-4.45-2,3.69,3.69,0,0,0-2.2.62,1.88,1.88,0,0,0-.86,1.59,2.44,2.44,0,0,0,.63,1.6,8.25,8.25,0,0,0,2,1.58l2.09,1.23q3.49,2.1,3.5,5.32a4.89,4.89,0,0,1-1.54,3.73,5.62,5.62,0,0,1-4,1.43,8.36,8.36,0,0,1-5.15-1.74V60.76a6.42,6.42,0,0,0,5.12,2.81,3.2,3.2,0,0,0,2.14-.72,2.23,2.23,0,0,0,.86-1.79C104.82,59.9,104,58.8,102.3,57.75Z"/><path class="cls-2" d="M108.77,46.63h16v2.43h-6.66v16.7h-2.74V49.06h-6.55Z"/><path class="cls-2" d="M127.33,46.66h2.74v19.1h-2.74Z"/><path class="cls-2" d="M149.5,46.66h2.55v19.1h-2.74V50.89l-5.88,7.39h-.5L137,50.89V65.76h-2.74V46.66h2.59l6.35,7.84Z"/><path class="cls-2" d="M162.27,46.55h1.92l8.56,19.21H170l-2.54-5.66h-8.15l-2.39,5.66h-2.81Zm4,11.11-3.08-6.92-2.85,6.92Z"/><path class="cls-2" d="M170.41,46.63h16v2.43h-6.66v16.7H177V49.06h-6.55Z"/><path class="cls-2" d="M189,46.66h2.74v19.1H189Z"/><path class="cls-2" d="M205.33,46.38a10.28,10.28,0,0,1,7.37,2.81,9.28,9.28,0,0,1,2.94,7,9.17,9.17,0,0,1-3,7A10.58,10.58,0,0,1,205.18,66a10,10,0,0,1-7.2-2.76,9.23,9.23,0,0,1-2.87-6.94A9.42,9.42,0,0,1,198,49.19,10.1,10.1,0,0,1,205.33,46.38Zm.11,2.6A7.39,7.39,0,0,0,200.05,51a7,7,0,0,0-2.11,5.24,6.86,6.86,0,0,0,2.11,5.14,7.87,7.87,0,0,0,10.64,0,7,7,0,0,0,2.14-5.21,6.86,6.86,0,0,0-2.14-5.11A7.27,7.27,0,0,0,205.44,49Z"/><path class="cls-2" d="M234.18,46.66h2.6v19.1h-2.35L221.66,51.05V65.76h-2.57V46.66h2.21l12.88,14.83Z"/></g></g><polygon class="cls-3" points="0 30.9 17.5 64.1 28.1 42.4 22.1 30.9 0 30.9"/><path class="cls-4" d="M22.7,66.9,55.7.4a.67.67,0,0,1,.7-.4H72.3A.74.74,0,0,1,73,1.1C62.3,23.4,51.7,45.6,41,67.9a.75.75,0,0,1-.7.5l-16.9-.3A.8.8,0,0,1,22.7,66.9Z"/></g></g></svg>