<?xml version="1.0" encoding="utf-8"?>
<!-- Generator: Adobe Illustrator 27.5.0, SVG Export Plug-In . SVG Version: 6.00 Build 0)  -->
<svg version="1.1" xmlns="http://www.w3.org/2000/svg" xmlns:xlink="http://www.w3.org/1999/xlink" x="0px" y="0px"
	 viewBox="0 0 750 500" style="enable-background:new 0 0 750 500;" xml:space="preserve">
<g id="BACKGROUND">
	<rect style="fill:#FFDEE7;" width="750" height="500"/>
</g>
<g id="OBJECTS">
	<g>
		<defs>
			<rect id="SVGID_1_" width="750" height="500"/>
		</defs>
		<clipPath id="SVGID_00000127758841909478178610000005209337224021734840_">
			<use xlink:href="#SVGID_1_"  style="overflow:visible;"/>
		</clipPath>
		<path style="opacity:0.5;clip-path:url(#SVGID_00000127758841909478178610000005209337224021734840_);fill:#FFFFFF;" d="
			M388.935,163.887c5.584-23.106,27.653-41.169,51.407-42.074c5.615-0.214,11.596,0.571,15.979,4.087
			c2.293,1.839,4.011,4.321,6.341,6.114c5.629,4.332,13.835,3.757,20.205,0.615c10.062-4.964,17.611-14.757,25.937-22.065
			c9.333-8.193,19.363-15.588,29.935-22.103c22.31-13.749,45.092-27.815,72.177-28.715c17.131-0.569,33.561,1.565,48.191,11.222
			c7.229,4.771,13.507,10.957,18.456,18.06c4.878,7.001,6.539,16.711,13.594,21.697c6.722,4.751,15.631,4.744,23.83,4.009
			c15.873-1.423,32.504-4.771,47.281,1.199c22.873,9.241,31.818,22.928,38.073,46.791L388.935,163.887z"/>
		<path style="opacity:0.5;clip-path:url(#SVGID_00000127758841909478178610000005209337224021734840_);fill:#FFFFFF;" d="
			M509.412,295.908c1.698-27.301-21.497-49.844-45.623-62.736c-18.929-10.115-39.614-16.933-60.847-20.058
			c-14.533-2.139-29.335-2.567-43.657-5.833c-14.322-3.266-28.569-9.827-37.349-21.604c-3.967-5.322-6.659-11.486-10.409-16.963
			c-10.915-15.943-31.19-24.924-50.332-22.296c-21.36,2.933-38.527,18.405-57.896,27.874c-12.163,5.947-28.028,9.09-38.294,0.264
			c-10.105-8.688-9.639-24.266-15.178-36.387c-10.409-22.779-40.042-29.422-64.945-26.767
			c-40.46,4.314-78.753,26.111-103.119,58.697l0.088,79.036L509.412,295.908z"/>
		<g style="clip-path:url(#SVGID_00000127758841909478178610000005209337224021734840_);">
			<polygon style="fill:#F5BBCA;" points="-10.301,214.499 91.413,198.691 183.516,239.488 260.403,229.926 326.877,253.953 
				399.759,245.945 464.632,268.652 528.97,268.652 528.97,461.534 -14.306,461.534 			"/>
			<polygon style="fill:#FFD2DF;" points="91.413,198.691 102.141,237.602 204.421,287.95 183.516,239.488 			"/>
			<polygon style="fill:#FFD2DF;" points="260.403,229.926 270.908,260.316 368.543,313.808 326.877,253.953 			"/>
			<polygon style="fill:#FFD2DF;" points="399.759,245.945 411.418,276.359 508.016,319.211 464.632,268.652 			"/>
			<polygon style="fill:#FFD2DF;" points="-28.412,295.908 62.279,286.647 235.254,347.581 372.308,347.581 539.593,392.602 
				539.593,463.76 -14.306,461.534 			"/>
		</g>
		<path style="clip-path:url(#SVGID_00000127758841909478178610000005209337224021734840_);fill:#F29CB4;" d="M460.021,356.769
			c-12.333-4.986-26.258-4.628-39.278-1.899c-13.02,2.729-25.441,7.702-38.092,11.816c-3.022,0.983-6.131,1.927-9.306,1.817
			c-3.317-0.115-6.473-1.371-9.707-2.114c-11.11-2.553-23.476,1.443-30.991,10.014c-2.194,2.502-4.072,5.417-6.946,7.095
			c-3.723,2.173-8.318,1.837-12.626,2c-11.584,0.44-22.96,5.127-31.492,12.975c-1.881,1.73-3.658,3.63-5.893,4.87
			c-2.609,1.447-5.636,1.883-8.535,2.588c-14.569,3.545-26.282,14.041-37.334,24.173c4.757,0.945,8.74,2.52,13.269,0.786h200.11
			L460.021,356.769z"/>
		<polygon style="clip-path:url(#SVGID_00000127758841909478178610000005209337224021734840_);fill:#89751F;" points="
			431.765,337.733 421.388,390.152 442.142,390.152 		"/>
		<polygon style="clip-path:url(#SVGID_00000127758841909478178610000005209337224021734840_);fill:#EF7333;" points="
			417.957,354.612 407.58,407.031 428.335,407.031 		"/>
		<g style="clip-path:url(#SVGID_00000127758841909478178610000005209337224021734840_);">
			<polygon style="fill:#EF7333;" points="260.403,374.085 250.026,426.505 270.78,426.505 			"/>
			<polygon style="fill:#FFC06E;" points="291.614,379.763 281.237,432.182 301.991,432.182 			"/>
			<polygon style="fill:#89751F;" points="276.862,370.95 266.485,423.37 287.239,423.37 			"/>
			<polygon style="fill:#EF7333;" points="309.608,363.943 299.231,416.362 319.985,416.362 			"/>
			<polygon style="fill:#89751F;" points="329.425,356.499 319.048,408.918 339.802,408.918 			"/>
			<polygon style="fill:#89751F;" points="245.631,390.152 235.254,442.572 256.008,442.572 			"/>
		</g>
		<g style="clip-path:url(#SVGID_00000127758841909478178610000005209337224021734840_);">
			<polygon style="fill:#F29086;" points="403.273,411.147 541.896,235.628 582.251,226.553 652.441,152.724 795.784,131.157 
				795.784,381.4 			"/>
			<polygon style="fill:#ED7D77;" points="582.251,226.553 790.91,187.423 652.441,152.724 			"/>
			<polygon style="fill:#ED7D77;" points="431.765,399.299 572.383,313.808 795.784,254.881 818.08,319.211 707.3,363.195 			"/>
		</g>
		<path style="clip-path:url(#SVGID_00000127758841909478178610000005209337224021734840_);fill:#F29CB4;" d="M203.646,424.898
			c-4.154-4.154-8.704-7.913-13.567-11.208c-3.551-2.406-7.263-4.563-10.972-6.718c-2.311-1.343-4.622-2.686-6.934-4.028
			c-3.315-1.926-6.633-3.854-10.081-5.529c-8.904-4.327-18.641-6.93-28.516-7.624c-1.38-0.097-2.787-0.162-4.083-0.644
			c-1.27-0.473-2.36-1.318-3.466-2.101c-9.679-6.854-22.201-9.551-33.843-7.287c-5.598-11.531-17.394-19.2-29.845-22.244
			s-25.555-1.971-38.166,0.322c-1.057,0.192-2.14,0.393-3.199,0.208c-1.48-0.259-2.718-1.232-3.923-2.13
			c-19.952-14.849-49.534-15.137-69.77-0.679c0,0.358-1.727-0.438-1.727-0.08v45.561L203.646,424.898z"/>
		<g style="clip-path:url(#SVGID_00000127758841909478178610000005209337224021734840_);">
			<polygon style="fill:#EF7333;" points="168.201,374.95 157.824,427.37 178.578,427.37 			"/>
			<polygon style="fill:#89751F;" points="15.99,348.74 5.613,401.16 26.367,401.16 			"/>
			<polygon style="fill:#EF7333;" points="66.223,358.612 55.846,411.031 76.6,411.031 			"/>
			<polygon style="fill:#FFC06E;" points="81.656,369.349 71.279,421.768 92.033,421.768 			"/>
			<polygon style="fill:#89751F;" points="178.578,396.602 168.201,449.022 188.955,449.022 			"/>
			<polygon style="fill:#FFC06E;" points="149.165,384.822 138.788,437.241 159.542,437.241 			"/>
		</g>
		<polygon style="clip-path:url(#SVGID_00000127758841909478178610000005209337224021734840_);fill:#EF7333;" points="
			-31.846,386.382 220.446,426.051 397.445,391.682 495.757,365.081 666.934,351.201 784.908,316.503 784.908,501.56 
			-27.028,501.56 		"/>
		<g style="clip-path:url(#SVGID_00000127758841909478178610000005209337224021734840_);">
			<polygon style="fill:#F39850;" points="361.629,286.647 335.306,419.618 387.952,419.618 			"/>
			<path style="fill:#5B4014;" d="M363.798,449.434h-4.339v-76.188c0.843-0.843,1.325-1.325,2.168-2.168l0,0
				c0.844,0.844,1.326,1.326,2.17,2.17V449.434z"/>
			<g>
				<path style="fill:#F39850;" d="M361.629,442.25c-7.492,0-14.066,3.911-17.804,9.8h35.609
					C375.695,446.162,369.12,442.25,361.629,442.25z"/>
			</g>
			<g>
				<path style="fill:#F39850;" d="M340.904,445.773c-4.799,0-9.01,2.506-11.405,6.278h22.81
					C349.914,448.278,345.703,445.773,340.904,445.773z"/>
			</g>
		</g>
		<g style="clip-path:url(#SVGID_00000127758841909478178610000005209337224021734840_);">
			<path style="fill:#ED7D77;" d="M435.781,374.224c-3.144-10.386-4.407-21.477-2.923-32.35c0.223-1.632,0.339-3.305,0.339-5.009
				c0-4.436-0.783-8.659-2.198-12.495c-3.348-9.077-4.781-19.015-4.007-28.846c0.084-1.066,0.109-2.152,0.073-3.253
				c-0.439-13.131-9.854-23.665-21.19-23.733c-11.825-0.071-21.431,11.021-21.431,24.714c0,0.557,0.016,1.111,0.047,1.659
				c0.575,10.044-0.527,20.17-3.952,29.421c-1.424,3.846-2.212,8.082-2.212,12.532c0,1.704,0.116,3.377,0.339,5.009
				c1.476,10.81,0.302,21.866-2.869,32.174c-1.305,4.241-1.958,8.84-1.821,13.637c0.556,19.411,14.258,35.14,31.006,35.605
				c17.922,0.498,32.585-16.196,32.585-36.861C437.566,382.151,436.937,378.044,435.781,374.224z"/>
			<path style="fill:#5B4014;" d="M408.458,458.661h-5.393v-92.226c1.048-1.048,1.647-1.647,2.695-2.695l0,0
				c1.049,1.049,1.649,1.648,2.698,2.698V458.661z"/>
			<g>
				<path style="fill:#89751F;" d="M405.762,451.637c-9.313,0-17.485,5.637-22.132,14.123h44.265
					C423.247,457.274,415.074,451.637,405.762,451.637z"/>
			</g>
			<g>
				<path style="fill:#89751F;" d="M378.948,458.699c-4.787,0-8.987,2.897-11.376,7.259h22.752
					C387.936,461.596,383.735,458.699,378.948,458.699z"/>
			</g>
		</g>
		<g style="clip-path:url(#SVGID_00000127758841909478178610000005209337224021734840_);">
			<path style="fill:#89751F;" d="M472.161,357.087c-3.144-10.387-4.407-21.477-2.923-32.35c0.223-1.632,0.339-3.305,0.339-5.009
				c0-4.436-0.783-8.659-2.198-12.495c-3.349-9.076-4.781-19.015-4.007-28.846c0.084-1.066,0.109-2.152,0.073-3.253
				c-0.439-13.131-9.854-23.665-21.19-23.732c-11.825-0.071-21.431,11.021-21.431,24.714c0,0.557,0.016,1.111,0.047,1.659
				c0.575,10.044-0.527,20.171-3.952,29.421c-1.424,3.846-2.212,8.082-2.212,12.532c0,1.704,0.116,3.377,0.339,5.009
				c1.476,10.81,0.302,21.866-2.869,32.174c-1.305,4.241-1.958,8.84-1.821,13.637c0.556,19.412,14.258,35.14,31.006,35.605
				c17.922,0.498,32.585-16.196,32.585-36.861C473.947,365.014,473.318,360.907,472.161,357.087z"/>
			<path style="fill:#5B4014;" d="M444.839,459.524h-5.393V349.298c1.048-1.048,1.647-1.647,2.695-2.696l0,0
				c1.049,1.049,1.649,1.649,2.698,2.698V459.524z"/>
			<g>
				<path style="fill:#F29086;" d="M442.142,449.637c-9.313,0-17.485,5.637-22.132,14.123h44.265
					C459.627,455.274,451.455,449.637,442.142,449.637z"/>
			</g>
		</g>
		<path style="clip-path:url(#SVGID_00000127758841909478178610000005209337224021734840_);fill:#FFC06E;" d="M827.446,413.204
			c-24.557-14.238-53.894-19.694-82.47-18.28c-28.576,1.414-56.486,9.417-82.708,20.518c-3.633,1.538-7.306,3.155-11.239,3.641
			c-4.335,0.536-8.704-0.335-13.022-0.992c-33.72-5.134-69.412,3.211-97.011,22.682c-2.949,2.08-5.872,4.315-9.311,5.489
			c-3.104,1.06-6.45,1.193-9.738,1.332c-52.866,2.233-108.431,9.723-150.337,41.049c75.672,6.675,150.381,13.025,226.319,15.606
			c79.802,2.712,151.495-45.925,225.867-74.108L827.446,413.204z"/>
		<polygon style="clip-path:url(#SVGID_00000127758841909478178610000005209337224021734840_);fill:#F39850;" points="
			-28.412,412.328 209.378,458.73 365.584,461.534 537.854,476.079 773.029,410.031 773.029,513.037 -24.256,513.037 		"/>
		<path style="clip-path:url(#SVGID_00000127758841909478178610000005209337224021734840_);fill:#FFDAAE;" d="M212.193,430.019
			L341.396,461.1l-115.407,17.108l152.96,24.173l-66.303,25.817H-77.916c0,0-3.734-14.189,0-14.189
			c3.734,0,136.554-37.14,136.554-37.14l-84.788-20.699L89.642,444.84l-45.08-18.335l140.169-6.069l35.715,5.616L212.193,430.019z"
			/>
		<g style="clip-path:url(#SVGID_00000127758841909478178610000005209337224021734840_);">
			<polygon style="fill:#FFC06E;" points="535.567,168.886 486.712,415.675 584.421,415.675 			"/>
			<path style="fill:#3F2A0C;" d="M539.593,471.013h-8.052V329.61c1.565-1.565,2.459-2.459,4.025-4.025l0,0
				c1.566,1.566,2.461,2.461,4.028,4.028V471.013z"/>
			<g>
				<path style="fill:#89751F;" d="M535.567,457.68c-13.904,0-26.105,7.26-33.044,18.189h66.088
					C561.672,464.94,549.471,457.68,535.567,457.68z"/>
			</g>
			<g>
				<path style="fill:#89751F;" d="M504.602,466.089c-7.528,0-14.133,3.93-17.89,9.847h35.78
					C518.736,470.02,512.13,466.089,504.602,466.089z"/>
			</g>
		</g>
		<g style="clip-path:url(#SVGID_00000127758841909478178610000005209337224021734840_);">
			<path style="fill:#89751F;" d="M636.764,338.488c-4.694-13.376-6.58-27.66-4.364-41.662c0.333-2.101,0.505-4.256,0.505-6.451
				c0-5.713-1.17-11.152-3.282-16.091c-5-11.689-7.138-24.489-5.983-37.15c0.125-1.373,0.163-2.771,0.108-4.189
				c-0.656-16.911-14.713-30.477-31.637-30.564c-17.656-0.091-31.997,14.194-31.997,31.829c0,0.718,0.024,1.431,0.071,2.137
				c0.859,12.935-0.787,25.977-5.9,37.89c-2.126,4.953-3.303,10.409-3.303,16.14c0,2.195,0.173,4.35,0.505,6.451
				c2.204,13.922,0.451,28.16-4.284,41.436c-1.948,5.462-2.924,11.385-2.719,17.562c0.831,24.999,21.287,45.255,46.293,45.854
				c26.758,0.641,48.65-20.858,48.65-47.471C639.429,348.698,638.49,343.408,636.764,338.488z"/>
			<path style="fill:#3F2A0C;" d="M595.97,470.413h-8.052V329.01c1.565-1.565,2.459-2.459,4.025-4.025l0,0
				c1.566,1.566,2.461,2.461,4.028,4.028V470.413z"/>
			<g>
				<path style="fill:#EF7333;" d="M591.944,457.68c-13.904,0-26.105,7.26-33.044,18.189h66.088
					C618.05,464.94,605.849,457.68,591.944,457.68z"/>
			</g>
		</g>
		<g style="clip-path:url(#SVGID_00000127758841909478178610000005209337224021734840_);">
			<path style="fill:#FFC06E;" d="M427.251,476.869c-24.703,0-46.38,12.898-58.708,32.315h117.416
				C473.631,489.767,451.954,476.869,427.251,476.869z"/>
		</g>
		<g style="clip-path:url(#SVGID_00000127758841909478178610000005209337224021734840_);">
			<path style="fill:#89751F;" d="M344.921,476.869c-24.703,0-46.38,12.898-58.708,32.315h117.416
				C391.301,489.767,369.624,476.869,344.921,476.869z"/>
		</g>
		<g style="clip-path:url(#SVGID_00000127758841909478178610000005209337224021734840_);">
			<path style="fill:#89751F;" d="M276.862,490.493c-14.535,0-27.289,7.589-34.543,19.014h69.085
				C304.151,498.082,291.396,490.493,276.862,490.493z"/>
		</g>
		<g style="clip-path:url(#SVGID_00000127758841909478178610000005209337224021734840_);">
			<path style="fill:#EF7333;" d="M489.078,489.697c-12.945,0-24.304,6.759-30.764,16.934h61.527
				C513.382,496.456,502.023,489.697,489.078,489.697z"/>
		</g>
		<g style="clip-path:url(#SVGID_00000127758841909478178610000005209337224021734840_);">
			
				<rect x="672.874" y="-12.176" transform="matrix(0.999 -0.0439 0.0439 0.999 -10.7615 30.6284)" style="fill:#3F2A0C;" width="39.173" height="545.363"/>
			<path style="fill:#3F2A0C;" d="M607.127,243.451l79.453,43.196v-20.108l-77.612-27.236
				C606.325,238.375,604.666,242.113,607.127,243.451z"/>
			<path style="fill:#3F2A0C;" d="M599.874,69.026l81.995,84.861l10.592-27.173l-89.667-61.151
				C600.53,64.019,597.969,67.055,599.874,69.026z"/>
			<path style="fill:#3F2A0C;" d="M764.655,11.489l-68.931,95.776l-14.392-25.366l79.935-73.417
				C763.286,6.628,766.256,9.264,764.655,11.489z"/>
		</g>
		<g style="clip-path:url(#SVGID_00000127758841909478178610000005209337224021734840_);">
			<path style="fill:#89751F;" d="M272.596-16.385c6.389,10.796,8.105,24.253,4.63,36.306
				c-3.475,12.054-12.092,22.531-23.248,28.269c-16.839,8.659-37.368,6.176-55.222-0.131c-6.639-2.345-13.218-5.21-20.229-5.861
				c-7.011-0.651-14.769,1.384-18.894,7.09c-6.924,9.576-0.531,22.577,2.374,34.031c2.944,11.607,1.709,24.665-5.276,34.391
				c-4.941,6.881-12.376,11.659-20.265,14.745c-14.359,5.617-30.721,5.944-45.293,0.907c-12.456-4.305-23.453-12.303-36.11-15.976
				c-12.657-3.673-28.798-1.361-35.068,10.231c-3.379,6.248-3.174,13.87-6.045,20.367c-5.127,11.605-19.582,17.082-32.043,14.694
				c-12.46-2.388-22.893-11.109-30.58-21.202l-0.767-168.963L272.596-16.385z"/>
			<g>
				
					<rect x="32.975" y="-29.361" transform="matrix(0.9988 0.048 -0.048 0.9988 11.7518 -2.2445)" style="fill:#3F2A0C;" width="39.173" height="545.363"/>
				<path style="fill:#3F2A0C;" d="M-30.845,218.503l75.151,50.309l1.846-20.023l-74.783-34.247
					C-31.177,213.375-33.173,216.945-30.845,218.503z"/>
				<path style="fill:#3F2A0C;" d="M-22.052,44.148l73.856,92.032l13.042-26.086l-83.673-69.126
					C-20.939,39.223-23.767,42.011-22.052,44.148z"/>
				<path style="fill:#3F2A0C;" d="M147.317,1.985L69.883,91.027L57.881,64.447L144.219-1.32
					C146.4-2.981,149.115-0.083,147.317,1.985z"/>
			</g>
		</g>
		<path style="clip-path:url(#SVGID_00000127758841909478178610000005209337224021734840_);fill:#F29CB4;" d="M172.713,497.257
			c0-0.001,0-0.001,0-0.001c-0.61-1.936-1.936-3.517-3.735-4.455c-1.799-0.937-3.856-1.117-5.791-0.508l-17.563,5.527l14.555-14.584
			c2.957-2.966,2.951-7.784-0.013-10.742c-1.437-1.433-3.343-2.221-5.374-2.219c-2.028,0.002-3.935,0.794-5.369,2.23l-11.002,11.025
			l5.271-11.329c0.856-1.84,0.944-3.903,0.249-5.809c-0.696-1.906-2.092-3.427-3.931-4.283c-3.798-1.764-8.325-0.114-10.092,3.683
			l-5.333,11.464l-0.012-11.865c-0.002-2.029-0.794-3.937-2.23-5.37c-1.437-1.433-3.35-2.227-5.373-2.219
			c-4.188,0.003-7.592,3.414-7.588,7.603l0.012,11.796l-5.325-11.384c-0.859-1.838-2.384-3.231-4.292-3.923
			c-1.905-0.692-3.97-0.6-5.807,0.261c-3.794,1.774-5.437,6.304-3.663,10.099l5.296,11.319l-11.026-11.002
			c-2.963-2.955-7.781-2.953-10.742,0.011c-2.958,2.964-2.954,7.783,0.01,10.743l14.585,14.554l-17.573-5.492
			c-4.005-1.249-8.267,0.985-9.518,4.984c-0.605,1.937-0.42,3.993,0.522,5.79c0.942,1.797,2.527,3.12,4.464,3.725l45.627,14.259
			c0.043,0.013,0.085,0.026,0.128,0.039l-0.058,0.126l0.11-0.11c1.641,0.468,3.369,0.363,4.918-0.26
			c1.553,0.619,3.285,0.72,4.921,0.249l0.11,0.112l-0.059-0.126c0.043-0.014,0.087-0.026,0.129-0.04l45.598-14.353
			c1.936-0.61,3.517-1.937,4.455-3.736C173.142,501.249,173.322,499.193,172.713,497.257z"/>
		<path style="clip-path:url(#SVGID_00000127758841909478178610000005209337224021734840_);fill:#FFC06E;" d="M670.623,499.968
			C670.623,499.967,670.623,499.967,670.623,499.968c-0.61-1.936-1.936-3.518-3.734-4.456c-1.799-0.937-3.856-1.117-5.791-0.508
			l-17.563,5.527l14.555-14.584c2.957-2.966,2.951-7.784-0.013-10.742c-1.437-1.433-3.343-2.221-5.374-2.219
			c-2.028,0.002-3.935,0.794-5.369,2.23l-11.002,11.025l5.271-11.329c0.856-1.84,0.944-3.903,0.249-5.809
			c-0.696-1.906-2.092-3.427-3.931-4.283c-3.798-1.764-8.325-0.114-10.092,3.683l-5.333,11.464l-0.012-11.865
			c-0.001-2.029-0.794-3.937-2.23-5.37c-1.437-1.433-3.35-2.227-5.373-2.218c-4.188,0.003-7.592,3.414-7.588,7.603l0.012,11.796
			l-5.325-11.383c-0.859-1.838-2.384-3.231-4.292-3.923c-1.905-0.692-3.97-0.6-5.807,0.261c-3.793,1.774-5.437,6.304-3.663,10.099
			l5.296,11.319l-11.026-11.002c-2.963-2.955-7.781-2.953-10.742,0.011c-2.958,2.964-2.954,7.783,0.01,10.743l14.585,14.554
			l-17.573-5.492c-4.005-1.249-8.267,0.985-9.518,4.984c-0.605,1.937-0.419,3.992,0.522,5.79c0.942,1.798,2.527,3.121,4.464,3.725
			l45.627,14.259c0.042,0.013,0.085,0.026,0.128,0.039l-0.058,0.126l0.111-0.111c1.641,0.468,3.369,0.363,4.918-0.26
			c1.553,0.619,3.285,0.72,4.921,0.249l0.11,0.111l-0.059-0.126c0.043-0.013,0.086-0.026,0.129-0.04l45.598-14.353
			c1.936-0.61,3.517-1.937,4.455-3.735C671.052,503.96,671.233,501.904,670.623,499.968z"/>
		<path style="clip-path:url(#SVGID_00000127758841909478178610000005209337224021734840_);fill:#89751F;" d="M751.781,485.594
			c-0.92-2.934-4.044-4.566-6.978-3.646l-51.268,16.079l40.392-40.392c2.174-2.174,2.174-5.699,0-7.873
			c-2.174-2.174-5.699-2.174-7.873,0l-41.896,41.896l23.033-49.375c1.3-2.786,0.095-6.099-2.692-7.398
			c-2.786-1.3-6.099-0.095-7.398,2.692l-20.08,43.045V434.33c0-3.075-2.492-5.567-5.567-5.567h0c-3.075,0-5.567,2.492-5.567,5.567
			v46.187l-20.031-42.939c-1.3-2.786-4.612-3.991-7.399-2.692c-2.786,1.3-3.991,4.612-2.691,7.398l23.033,49.375l-41.896-41.896
			c-2.174-2.174-5.699-2.174-7.873,0c-2.174,2.174-2.174,5.699,0,7.873l40.392,40.392l-51.269-16.08
			c-2.934-0.92-6.058,0.712-6.978,3.646c-0.92,2.934,0.712,6.058,3.646,6.978l70.614,22.147c1.801,0.565,3.671,0.165,5.062-0.905
			c0.311,0.054,0.63,0.088,0.957,0.088h0c0.341,0,0.674-0.035,0.998-0.094c1.391,1.074,3.266,1.477,5.07,0.911l70.614-22.147
			C751.069,491.652,752.701,488.528,751.781,485.594z"/>
		<path style="clip-path:url(#SVGID_00000127758841909478178610000005209337224021734840_);fill:#EF7333;" d="M101.404,484.851
			c-0.755-2.981-3.782-4.785-6.763-4.031l-52.088,13.185l42.589-38.068c2.292-2.049,2.49-5.568,0.441-7.861
			c-2.049-2.292-5.568-2.49-7.861-0.441l-44.176,39.486l25.761-48.008c1.454-2.709,0.436-6.084-2.273-7.538
			c-2.709-1.454-6.084-0.436-7.538,2.273l-22.458,41.853l2.591-46.22c0.172-3.07-2.177-5.698-5.247-5.87h0
			c-3.07-0.172-5.698,2.177-5.87,5.247l-2.585,46.114l-17.596-43.993c-1.142-2.855-4.382-4.243-7.236-3.101
			c-2.855,1.142-4.243,4.382-3.101,7.236l20.233,50.587l-39.486-44.176c-2.049-2.292-5.568-2.49-7.86-0.441
			c-2.292,2.049-2.49,5.568-0.441,7.861l38.068,42.589l-50.288-18.924c-2.877-1.083-6.088,0.372-7.171,3.25
			c-1.083,2.878,0.372,6.088,3.249,7.171l69.264,26.065c1.766,0.665,3.656,0.37,5.104-0.62c0.308,0.071,0.624,0.123,0.951,0.141h0
			c0.34,0.019,0.674,0.002,1.001-0.038c1.329,1.15,3.178,1.657,5.011,1.193l71.743-18.16
			C100.354,490.859,102.158,487.832,101.404,484.851z"/>
		
			<ellipse transform="matrix(0.159 -0.9873 0.9873 0.159 236.3928 458.0552)" style="clip-path:url(#SVGID_00000127758841909478178610000005209337224021734840_);fill:#FFC06E;" cx="387.068" cy="90.269" rx="23.27" ry="23.27"/>
	</g>
</g>
</svg>
