<svg xmlns="http://www.w3.org/2000/svg" xmlns:xlink="http://www.w3.org/1999/xlink" viewBox="0 0 363.01 283.86"><defs><style>.cls-1{fill:none;}.cls-2{clip-path:url(#clip-path);}.cls-3{fill:#80cc28;}.cls-4{clip-path:url(#clip-path-2);}.cls-5{fill:#7b7979;}.cls-6{clip-path:url(#clip-path-3);}.cls-7{fill:#27963c;}.cls-8{clip-path:url(#clip-path-4);}.cls-9{fill:#4f4c4c;}</style><clipPath id="clip-path" transform="translate(0.01 -0.07)"><rect class="cls-1" x="210.05" y="142.83" width="152.95" height="141.17"/></clipPath><clipPath id="clip-path-2" transform="translate(0.01 -0.07)"><rect class="cls-1" x="91.39" y="142.83" width="153.33" height="141.17"/></clipPath><clipPath id="clip-path-3" transform="translate(0.01 -0.07)"><rect class="cls-1" x="118.05" width="201.33" height="202.83"/></clipPath><clipPath id="clip-path-4" transform="translate(0.01 -0.07)"><rect class="cls-1" width="200.72" height="202.83"/></clipPath></defs><g id="Capa_2" data-name="Capa 2"><g id="Capa_1-2" data-name="Capa 1"><g class="cls-2"><path class="cls-3" d="M318.43,143.91,273.85,202l-62.9,82L363,202l-44.58-58.07" transform="translate(0.01 -0.07)"/></g><g class="cls-4"><path class="cls-5" d="M244.15,202l-44.58-58.07L155,202l-63.17,82h89.42l62.91-82" transform="translate(0.01 -0.07)"/></g><g class="cls-6"><path class="cls-7" d="M208,.07H118.86L273.85,202l44.58-58.07L208,.07" transform="translate(0.01 -0.07)"/></g><g class="cls-8"><path class="cls-9" d="M89.15.07H0L155,202l44.58-58.07L89.15.07" transform="translate(0.01 -0.07)"/></g></g></g></svg>